<svg width="200" height="78" viewBox="0 0 200 78" fill="none" xmlns="http://www.w3.org/2000/svg">
<rect width="200" height="78" fill="white"/>
<path d="M34.104 27.904V30.88L28.728 32.224L27.96 40H21.72L19.8 20.608H34.52L35.512 24.576L29.464 24.96L29.144 27.904H34.104ZM39.104 38.432C37.568 37.152 36.8 35.1253 36.8 32.352C36.8 29.5787 37.568 27.5627 39.104 26.304C40.6613 25.024 42.7307 24.384 45.312 24.384C47.8933 24.384 49.952 25.024 51.488 26.304C53.0453 27.5627 53.824 29.5787 53.824 32.352C53.824 35.1253 53.0453 37.152 51.488 38.432C49.952 39.6907 47.8933 40.32 45.312 40.32C42.7307 40.32 40.6613 39.6907 39.104 38.432ZM43.968 28.736C43.712 29.4613 43.584 30.6667 43.584 32.352C43.584 34.0373 43.712 35.2533 43.968 36C44.224 36.7253 44.672 37.088 45.312 37.088C45.952 37.088 46.4 36.7253 46.656 36C46.912 35.2533 47.04 34.0373 47.04 32.352C47.04 30.6667 46.912 29.4613 46.656 28.736C46.4 27.9893 45.952 27.616 45.312 27.616C44.672 27.616 44.224 27.9893 43.968 28.736ZM57.729 38.432C56.193 37.152 55.425 35.1253 55.425 32.352C55.425 29.5787 56.193 27.5627 57.729 26.304C59.2863 25.024 61.3557 24.384 63.937 24.384C66.5183 24.384 68.577 25.024 70.113 26.304C71.6703 27.5627 72.449 29.5787 72.449 32.352C72.449 35.1253 71.6703 37.152 70.113 38.432C68.577 39.6907 66.5183 40.32 63.937 40.32C61.3557 40.32 59.2863 39.6907 57.729 38.432ZM62.593 28.736C62.337 29.4613 62.209 30.6667 62.209 32.352C62.209 34.0373 62.337 35.2533 62.593 36C62.849 36.7253 63.297 37.088 63.937 37.088C64.577 37.088 65.025 36.7253 65.281 36C65.537 35.2533 65.665 34.0373 65.665 32.352C65.665 30.6667 65.537 29.4613 65.281 28.736C65.025 27.9893 64.577 27.616 63.937 27.616C63.297 27.616 62.849 27.9893 62.593 28.736ZM74.05 32.064C74.05 30.592 74.2527 29.3227 74.658 28.256C75.0847 27.1893 75.6393 26.3893 76.322 25.856C77.5807 24.8747 78.978 24.384 80.514 24.384C81.282 24.384 81.986 24.544 82.626 24.864C83.2873 25.1627 83.746 25.472 84.002 25.792L84.386 26.24L84.13 19.232H91.426L90.562 40H85.762L85.218 37.92C83.938 39.4987 82.3593 40.288 80.482 40.288C78.626 40.3093 77.09 39.616 75.874 38.208C74.658 36.8 74.05 34.752 74.05 32.064ZM82.562 28.672C81.3033 28.672 80.674 29.952 80.674 32.512C80.674 32.9813 80.706 33.4293 80.77 33.856C80.834 34.2827 81.026 34.7307 81.346 35.2C81.666 35.6693 82.1353 35.904 82.754 35.904C83.3727 35.904 83.842 35.5627 84.162 34.88C84.5033 34.176 84.674 33.3867 84.674 32.512C84.674 29.952 83.97 28.672 82.562 28.672ZM176.686 36.384C177.091 35.936 177.699 35.712 178.51 35.712C179.32 35.712 179.928 35.936 180.334 36.384C180.739 36.8107 180.942 37.3547 180.942 38.016C180.942 38.6773 180.739 39.232 180.334 39.68C179.928 40.1067 179.32 40.32 178.51 40.32C177.699 40.32 177.091 40.1067 176.686 39.68C176.28 39.232 176.078 38.6773 176.078 38.016C176.078 37.3547 176.28 36.8107 176.686 36.384Z" fill="#FF6000"/>
<path d="M107.901 36.768C109.373 36.768 110.515 35.9893 111.325 34.432C112.136 32.8747 112.541 31.2427 112.541 29.536C112.541 27.808 112.232 26.432 111.613 25.408C110.995 24.384 110.195 23.872 109.213 23.872H109.021L107.709 36.768H107.901ZM107.773 40H101.501L99.5813 20.608H109.021C113.779 20.608 117.053 21.9093 118.845 24.512C119.784 25.8987 120.253 27.5413 120.253 29.44C120.253 36.48 116.093 40 107.773 40ZM127.338 40.32C125.696 40.32 124.341 39.84 123.274 38.88C122.229 37.92 121.706 36.5653 121.706 34.816C121.706 33.0453 122.304 31.7653 123.498 30.976C124.693 30.1653 126.133 29.76 127.818 29.76C129.504 29.76 130.965 30.0267 132.202 30.56C131.925 28.7893 130.805 27.904 128.842 27.904C127.946 27.904 126.837 28.0853 125.514 28.448L124.714 25.568C126.634 24.7787 128.586 24.384 130.57 24.384C136.288 24.384 139.146 26.816 139.146 31.68C139.146 33.344 138.954 35.648 138.57 38.592L138.41 40H133.13L132.938 38.24C131.488 39.6267 129.621 40.32 127.338 40.32ZM130.218 36.352C131.178 36.352 132 36.0853 132.682 35.552L132.49 33.44C131.957 33.0773 131.36 32.896 130.698 32.896C130.058 32.896 129.525 33.056 129.098 33.376C128.693 33.696 128.49 34.0907 128.49 34.56C128.49 35.0293 128.65 35.4453 128.97 35.808C129.29 36.1707 129.706 36.352 130.218 36.352ZM154.942 35.2C154.942 36.416 154.536 37.4293 153.726 38.24C152.915 39.0507 151.976 39.6053 150.91 39.904C149.864 40.1813 148.851 40.32 147.87 40.32C146.888 40.32 146.024 40.256 145.278 40.128C144.552 40 143.934 39.8507 143.422 39.68C142.483 39.3173 141.736 38.976 141.182 38.656L140.894 38.464L142.302 35.552C143.582 36.2773 144.659 36.64 145.534 36.64C146.408 36.64 146.846 36.2773 146.846 35.552C146.846 35.1893 146.568 34.816 146.014 34.432C145.459 34.048 144.851 33.6853 144.19 33.344C143.55 33.0027 142.952 32.48 142.398 31.776C141.843 31.072 141.566 30.2613 141.566 29.344C141.566 27.7013 142.184 26.464 143.422 25.632C144.659 24.8 146.291 24.384 148.318 24.384C149.342 24.384 150.344 24.4693 151.326 24.64C152.307 24.8107 153.043 24.9813 153.534 25.152L154.238 25.44L153.438 28.672C152.222 28.224 151.187 28 150.334 28C149.48 28 149.054 28.3307 149.054 28.992C149.054 29.312 149.256 29.6213 149.662 29.92C150.067 30.1973 150.558 30.4747 151.134 30.752C151.71 31.0293 152.286 31.3493 152.862 31.712C153.438 32.0533 153.928 32.5333 154.334 33.152C154.739 33.7493 154.942 34.432 154.942 35.2ZM169.542 24.384C170.758 24.384 171.75 24.7467 172.518 25.472C173.286 26.176 173.798 27.0293 174.054 28.032C174.331 29.0347 174.47 30.3147 174.47 31.872C174.47 33.4293 174.225 36.1387 173.734 40H168.134L167.43 32.576C167.302 31.296 167.131 30.4427 166.918 30.016C166.705 29.5893 166.342 29.376 165.83 29.376C164.571 29.376 163.889 30.4533 163.782 32.608L163.462 40H157.574L156.71 19.232H164.326L164.006 27.552C164.689 26.1867 165.819 25.2373 167.398 24.704C168.059 24.4907 168.774 24.384 169.542 24.384Z" fill="#2A2A2A"/>
<path d="M25.5 64H175.5" stroke="#FF6000" stroke-width="2" stroke-linecap="round" stroke-dasharray="12 12"/>
</svg>
